<svg width="133" height="19" viewBox="0 0 133 19" fill="none" xmlns="http://www.w3.org/2000/svg">
<path d="M129.329 4.28312C129.841 3.88543 130.514 3.91369 131.019 4.32398C131.483 4.69279 131.825 5.23407 131.989 5.8589C132.051 6.09637 132.048 6.35055 131.978 6.58538C131.909 6.82021 131.778 7.02379 131.604 7.16723C131.43 7.31067 131.221 7.3867 131.008 7.38453C130.794 7.38236 130.587 7.30211 130.415 7.15515L128.729 5.7142C128.729 4.96852 129.004 4.53508 129.329 4.28414V4.28312Z" fill="url(#paint0_linear_1:377)"/>
<path d="M124.174 4.28312C123.662 3.88543 122.989 3.91369 122.485 4.32398C122.021 4.69279 121.679 5.23407 121.515 5.8589C121.452 6.09637 121.456 6.35055 121.525 6.58538C121.594 6.82021 121.725 7.02379 121.9 7.16723C122.074 7.31067 122.283 7.3867 122.496 7.38453C122.71 7.38236 122.917 7.30211 123.089 7.15515L124.775 5.7142C124.775 4.96852 124.499 4.53508 124.175 4.28414L124.174 4.28312Z" fill="url(#paint1_linear_1:377)"/>
<path d="M123.862 5.56023C123.767 5.45022 123.638 5.38843 123.505 5.38843C123.371 5.38843 123.242 5.45022 123.147 5.56023C122.713 6.06144 122.359 6.6488 122.101 7.29468C122.263 7.37177 122.438 7.39935 122.611 7.37479C122.784 7.35022 122.949 7.27433 123.09 7.1544L123.939 6.27492C123.996 6.16275 124.02 6.03158 124.006 5.90215C123.992 5.77272 123.941 5.6524 123.862 5.56023V5.56023Z" fill="#5C586F"/>
<path d="M130.953 10.7523C130.704 12.8633 129.538 13.9999 126.752 13.9999C123.566 13.9999 122.498 12.5154 122.498 9.78463C122.499 9.00767 122.656 8.2417 122.959 7.54875C123.261 6.85581 123.699 6.25538 124.238 5.79608C124.777 5.33679 125.402 5.03155 126.061 4.90509C126.721 4.77862 127.396 4.83449 128.034 5.06817L130.953 10.7523Z" fill="url(#paint2_linear_1:377)"/>
<path d="M131.005 9.78614C131.006 10.1097 130.989 10.433 130.953 10.7538C130.547 10.8846 130.12 10.9045 129.706 10.812C129.292 10.7196 128.903 10.5172 128.567 10.2208C128.232 9.92429 127.96 9.54174 127.772 9.10294C127.585 8.66414 127.487 8.18097 127.487 7.69111C127.487 6.32915 127.607 5.52695 128.032 5.06934C128.895 5.38619 129.648 6.01427 130.182 6.86242C130.717 7.71058 131.005 8.73469 131.005 9.78614V9.78614Z" fill="url(#paint3_linear_1:377)"/>
<path d="M123.879 9.75382C124.148 9.75382 124.367 9.54955 124.367 9.29757C124.367 9.04558 124.148 8.84131 123.879 8.84131C123.609 8.84131 123.39 9.04558 123.39 9.29757C123.39 9.54955 123.609 9.75382 123.879 9.75382Z" fill="#FFAECF"/>
<path d="M129.624 9.75382C129.894 9.75382 130.113 9.54955 130.113 9.29757C130.113 9.04558 129.894 8.84131 129.624 8.84131C129.355 8.84131 129.136 9.04558 129.136 9.29757C129.136 9.54955 129.355 9.75382 129.624 9.75382Z" fill="#FFAECF"/>
<path d="M125.672 8.35263C125.758 7.73898 125.399 7.16076 124.871 7.06116C124.343 6.96155 123.846 7.37826 123.76 7.99191C123.675 8.60556 124.033 9.18378 124.561 9.28339C125.089 9.383 125.586 8.96628 125.672 8.35263Z" fill="white"/>
<path d="M128.788 9.29746C129.322 9.29746 129.756 8.79348 129.756 8.1718C129.756 7.55012 129.322 7.04614 128.788 7.04614C128.253 7.04614 127.819 7.55012 127.819 8.1718C127.819 8.79348 128.253 9.29746 128.788 9.29746Z" fill="white"/>
<path d="M125.298 8.25249C125.349 7.88574 125.134 7.54039 124.819 7.48111C124.503 7.42184 124.206 7.6711 124.155 8.03785C124.104 8.4046 124.319 8.74995 124.634 8.80923C124.95 8.8685 125.247 8.61924 125.298 8.25249Z" fill="#383842"/>
<path d="M128.787 8.84263C129.106 8.84263 129.364 8.54232 129.364 8.17186C129.364 7.80141 129.106 7.5011 128.787 7.5011C128.469 7.5011 128.21 7.80141 128.21 8.17186C128.21 8.54232 128.469 8.84263 128.787 8.84263Z" fill="#383842"/>
<path d="M127.073 9.63967C126.957 9.6388 126.845 9.59672 126.751 9.51914C126.656 9.59672 126.544 9.6388 126.429 9.63967C126.347 9.63761 126.267 9.616 126.193 9.57621C126.12 9.53643 126.054 9.47932 126 9.40848C125.986 9.39178 125.976 9.37218 125.969 9.3508C125.962 9.32943 125.959 9.30669 125.96 9.2839C125.961 9.2611 125.965 9.23869 125.973 9.21794C125.981 9.1972 125.993 9.17852 126.007 9.16298C126.022 9.14745 126.039 9.13535 126.057 9.12739C126.075 9.11942 126.095 9.11575 126.115 9.11657C126.134 9.11739 126.153 9.12269 126.171 9.13218C126.189 9.14166 126.205 9.15514 126.219 9.17184C126.244 9.20939 126.276 9.23978 126.313 9.26068C126.349 9.28158 126.39 9.29245 126.431 9.29245C126.471 9.29245 126.512 9.28158 126.549 9.26068C126.585 9.23978 126.618 9.20939 126.643 9.17184C126.657 9.15441 126.674 9.14052 126.692 9.13102C126.711 9.12152 126.731 9.11661 126.752 9.11661C126.772 9.11661 126.793 9.12152 126.811 9.13102C126.83 9.14052 126.847 9.15441 126.861 9.17184C126.886 9.20939 126.918 9.23978 126.955 9.26068C126.992 9.28158 127.032 9.29245 127.073 9.29245C127.114 9.29245 127.154 9.28158 127.191 9.26068C127.228 9.23978 127.26 9.20939 127.285 9.17184C127.299 9.15514 127.315 9.14166 127.332 9.13218C127.35 9.12269 127.37 9.11739 127.389 9.11657C127.409 9.11575 127.428 9.11942 127.447 9.12739C127.465 9.13535 127.482 9.14745 127.496 9.16298C127.511 9.17852 127.522 9.1972 127.53 9.21794C127.539 9.23869 127.543 9.2611 127.544 9.2839C127.545 9.30669 127.541 9.32943 127.535 9.3508C127.528 9.37218 127.517 9.39178 127.504 9.40848C127.45 9.47961 127.384 9.53689 127.309 9.57669C127.235 9.61649 127.155 9.63793 127.073 9.63967H127.073Z" fill="#383842"/>
<path d="M127.282 8.38435C127.282 8.5832 127.044 8.74391 126.752 8.74391C126.459 8.74391 126.221 8.5832 126.221 8.38435C126.221 8.18551 126.459 8.16235 126.752 8.16235C127.044 8.16235 127.282 8.18585 127.282 8.38435Z" fill="#383842"/>
<path d="M7.96992 8.75402C7.58036 8.68992 7.21481 8.50956 6.91401 8.23304C6.6132 7.95652 6.38894 7.59469 6.2662 7.18785C6.14347 6.78101 6.12707 6.34513 6.21885 5.92876C6.31062 5.51239 6.50696 5.13188 6.786 4.82961C7.61773 3.92581 9.21804 3.65277 10.0498 4.55657C10.1046 4.61618 10.1553 4.68014 10.2015 4.74792L7.96992 8.75402Z" fill="url(#paint4_linear_1:377)"/>
<path d="M9.79858 8.10276C9.56241 8.35995 9.27373 8.55297 8.956 8.66613C8.63827 8.7793 8.30046 8.80941 7.97001 8.75403C7.83828 8.33156 7.79313 7.88291 7.8377 7.43949C7.88227 6.99607 8.01548 6.56859 8.22803 6.18698C8.44057 5.80537 8.72729 5.47884 9.06814 5.23027C9.40898 4.98169 9.7957 4.81707 10.2012 4.74792C10.8473 5.68828 10.575 7.25939 9.79858 8.10276Z" fill="url(#paint5_linear_1:377)"/>
<path d="M2.59201 8.75402C2.98158 8.68992 3.34712 8.50956 3.64793 8.23304C3.94873 7.95652 4.173 7.59469 4.29573 7.18785C4.41847 6.78101 4.43486 6.34513 4.34309 5.92876C4.25131 5.51239 4.05497 5.13188 3.77593 4.82961C2.9442 3.92581 1.3439 3.65277 0.51251 4.55657C0.457443 4.61608 0.406608 4.68005 0.360443 4.74792L2.59201 8.75402Z" fill="url(#paint6_linear_1:377)"/>
<path d="M0.763772 8.10275C0.999875 8.35994 1.28849 8.55296 1.60617 8.66612C1.92384 8.77929 2.2616 8.80941 2.592 8.75402C2.69118 8.43704 2.74163 8.10446 2.74132 7.76966C2.74116 7.04029 2.50115 6.33499 2.06458 5.78098C1.62801 5.22697 1.02362 4.86072 0.360435 4.74829C-0.283531 5.68827 -0.0130378 7.25938 0.763772 8.10275Z" fill="url(#paint7_linear_1:377)"/>
<path d="M1.59907 6.02502C1.53397 5.95461 1.45574 5.90016 1.36965 5.86536C1.28355 5.83057 1.19159 5.81622 1.09997 5.82329C1.00834 5.83036 0.919172 5.85868 0.838466 5.90635C0.757759 5.95401 0.68739 6.01992 0.632096 6.09962C0.445306 6.36634 0.278079 6.64858 0.131958 6.94374C0.254953 7.37892 0.471313 7.77613 0.763223 8.10267C0.930695 8.28502 1.12503 8.43567 1.33819 8.54842L1.76624 6.68711C1.79329 6.57046 1.79211 6.44818 1.76281 6.33217C1.73352 6.21616 1.67712 6.11035 1.59907 6.02502V6.02502Z" fill="#FD748D"/>
<path d="M0.535876 10.5921C0.509397 10.374 0.49621 10.1542 0.496401 9.93413C0.50709 8.56285 1.01589 7.25169 1.91202 6.28613C2.80814 5.32057 4.01903 4.77881 5.28101 4.77881C6.54299 4.77881 7.75387 5.32057 8.65 6.28613C9.54612 7.25169 10.0549 8.56285 10.0656 9.93413C10.066 10.1543 10.0528 10.3742 10.0261 10.5925L0.535876 10.5921Z" fill="url(#paint8_linear_1:377)"/>
<path d="M10.0264 10.5925C9.72295 13.0458 7.71382 13.9999 5.2811 13.9999C2.84838 13.9999 0.8389 13.0458 0.535797 10.5921C1.77155 9.30823 3.00731 9.76069 4.31172 7.08212C4.40482 6.89081 4.54461 6.73104 4.71574 6.62034C4.84364 6.53725 4.98573 6.48321 5.1334 6.4615C5.28107 6.43978 5.43127 6.45084 5.57489 6.49401C5.71852 6.53718 5.85259 6.61155 5.96901 6.71264C6.08543 6.81373 6.18176 6.93942 6.2522 7.08212C7.5542 9.76069 8.79236 9.30823 10.0281 10.5925H10.0264Z" fill="url(#paint9_linear_1:377)"/>
<path d="M2.21061 10.0186C2.49877 10.0186 2.73237 9.81449 2.73237 9.56275C2.73237 9.31101 2.49877 9.10693 2.21061 9.10693C1.92244 9.10693 1.68884 9.31101 1.68884 9.56275C1.68884 9.81449 1.92244 10.0186 2.21061 10.0186Z" fill="#FFAECF"/>
<path d="M8.35129 10.0186C8.63945 10.0186 8.87305 9.81449 8.87305 9.56275C8.87305 9.31101 8.63945 9.10693 8.35129 9.10693C8.06313 9.10693 7.82953 9.31101 7.82953 9.56275C7.82953 9.81449 8.06313 10.0186 8.35129 10.0186Z" fill="#FFAECF"/>
<path d="M3.10516 9.5627C3.67655 9.5627 4.13976 9.05936 4.13976 8.43846C4.13976 7.81755 3.67655 7.31421 3.10516 7.31421C2.53376 7.31421 2.07056 7.81755 2.07056 8.43846C2.07056 9.05936 2.53376 9.5627 3.10516 9.5627Z" fill="white"/>
<path d="M7.45678 9.5627C8.02818 9.5627 8.49138 9.05936 8.49138 8.43846C8.49138 7.81755 8.02818 7.31421 7.45678 7.31421C6.88539 7.31421 6.42218 7.81755 6.42218 8.43846C6.42218 9.05936 6.88539 9.5627 7.45678 9.5627Z" fill="white"/>
<path d="M3.10516 9.10878C3.44584 9.10878 3.72201 8.80868 3.72201 8.43848C3.72201 8.06829 3.44584 7.76819 3.10516 7.76819C2.76448 7.76819 2.48831 8.06829 2.48831 8.43848C2.48831 8.80868 2.76448 9.10878 3.10516 9.10878Z" fill="#383842"/>
<path d="M7.45672 9.10878C7.7974 9.10878 8.07357 8.80868 8.07357 8.43848C8.07357 8.06829 7.7974 7.76819 7.45672 7.76819C7.11605 7.76819 6.83987 8.06829 6.83987 8.43848C6.83987 8.80868 7.11605 9.10878 7.45672 9.10878Z" fill="#383842"/>
<path d="M5.62438 9.92109C5.50184 9.92002 5.38235 9.87938 5.28112 9.80434C5.17997 9.87959 5.06043 9.92025 4.93785 9.92109C4.84848 9.91933 4.76042 9.89744 4.67924 9.85679C4.59805 9.81615 4.52551 9.75764 4.46621 9.68497C4.43612 9.6478 4.42056 9.59934 4.42282 9.54989C4.42509 9.50045 4.445 9.45391 4.47834 9.42016C4.51167 9.38642 4.5558 9.36812 4.60135 9.36916C4.6469 9.3702 4.69028 9.39049 4.72228 9.42573C4.74772 9.4615 4.78036 9.49046 4.8177 9.51039C4.85504 9.53031 4.89608 9.54067 4.93768 9.54067C4.97928 9.54067 5.02032 9.53031 5.05766 9.51039C5.095 9.49046 5.12764 9.4615 5.15308 9.42573C5.16946 9.40664 5.18928 9.39142 5.21131 9.38101C5.23333 9.3706 5.2571 9.36523 5.28112 9.36523C5.30514 9.36523 5.3289 9.3706 5.35093 9.38101C5.37295 9.39142 5.39277 9.40664 5.40915 9.42573C5.43459 9.4615 5.46723 9.49046 5.50457 9.51039C5.54191 9.53031 5.58295 9.54067 5.62455 9.54067C5.66615 9.54067 5.7072 9.53031 5.74454 9.51039C5.78188 9.49046 5.81452 9.4615 5.83995 9.42573C5.87195 9.39049 5.91533 9.3702 5.96088 9.36916C6.00643 9.36812 6.05056 9.38642 6.08389 9.42016C6.11723 9.45391 6.13714 9.50045 6.13941 9.54989C6.14167 9.59934 6.12611 9.6478 6.09603 9.68497C6.03679 9.75763 5.96431 9.81614 5.88318 9.85678C5.80205 9.89743 5.71404 9.91932 5.62472 9.92109H5.62438Z" fill="#383842"/>
<path d="M20.5346 10.3516H16.0346V15H13.6908V3.625H21.0971V5.52344H16.0346V8.46094H20.5346V10.3516ZM26.8549 8.66406C26.5476 8.6224 26.2768 8.60156 26.0424 8.60156C25.1882 8.60156 24.6283 8.89062 24.3627 9.46875V15H22.1049V6.54688H24.2377L24.3002 7.55469C24.7533 6.77865 25.3809 6.39062 26.183 6.39062C26.433 6.39062 26.6674 6.42448 26.8861 6.49219L26.8549 8.66406ZM27.3158 10.6953C27.3158 9.85677 27.4773 9.10938 27.8002 8.45312C28.1231 7.79688 28.5867 7.28906 29.1908 6.92969C29.8002 6.57031 30.5059 6.39062 31.308 6.39062C32.4486 6.39062 33.3783 6.73958 34.0971 7.4375C34.821 8.13542 35.2247 9.08333 35.308 10.2812L35.3236 10.8594C35.3236 12.1562 34.9617 13.1979 34.2377 13.9844C33.5137 14.7656 32.5424 15.1562 31.3236 15.1562C30.1049 15.1562 29.1309 14.7656 28.4018 13.9844C27.6778 13.2031 27.3158 12.1406 27.3158 10.7969V10.6953ZM29.5736 10.8594C29.5736 11.6615 29.7247 12.276 30.0268 12.7031C30.3288 13.125 30.7611 13.3359 31.3236 13.3359C31.8705 13.3359 32.2976 13.1276 32.6049 12.7109C32.9122 12.2891 33.0658 11.6172 33.0658 10.6953C33.0658 9.90885 32.9122 9.29948 32.6049 8.86719C32.2976 8.4349 31.8653 8.21875 31.308 8.21875C30.7559 8.21875 30.3288 8.4349 30.0268 8.86719C29.7247 9.29427 29.5736 9.95833 29.5736 10.8594ZM38.7924 6.54688L38.8627 7.52344C39.4669 6.76823 40.2768 6.39062 41.2924 6.39062C42.1882 6.39062 42.8549 6.65365 43.2924 7.17969C43.7299 7.70573 43.9538 8.49219 43.9643 9.53906V15H41.7065V9.59375C41.7065 9.11458 41.6023 8.76823 41.394 8.55469C41.1856 8.33594 40.8393 8.22656 40.3549 8.22656C39.7195 8.22656 39.2429 8.4974 38.9252 9.03906V15H36.6674V6.54688H38.7924ZM48.3861 4.46875V6.54688H49.8315V8.20312H48.3861V12.4219C48.3861 12.7344 48.446 12.9583 48.5658 13.0938C48.6856 13.2292 48.9148 13.2969 49.2533 13.2969C49.5033 13.2969 49.7247 13.2786 49.9174 13.2422V14.9531C49.4747 15.0885 49.019 15.1562 48.5502 15.1562C46.9669 15.1562 46.1596 14.3568 46.1283 12.7578V8.20312H44.894V6.54688H46.1283V4.46875H48.3861Z" fill="#3C2313"/>
<path d="M62.7586 11.2109C62.6701 12.4349 62.2169 13.3984 61.3992 14.1016C60.5867 14.8047 59.5138 15.1562 58.1805 15.1562C56.7221 15.1562 55.5737 14.6667 54.7352 13.6875C53.9018 12.7031 53.4852 11.3542 53.4852 9.64062V8.94531C53.4852 7.85156 53.6779 6.88802 54.0633 6.05469C54.4487 5.22135 54.9982 4.58333 55.7117 4.14062C56.4305 3.69271 57.2638 3.46875 58.2117 3.46875C59.5242 3.46875 60.5815 3.82031 61.3836 4.52344C62.1857 5.22656 62.6492 6.21354 62.7742 7.48438H60.4305C60.3732 6.75 60.1675 6.21875 59.8133 5.89062C59.4643 5.55729 58.9305 5.39062 58.2117 5.39062C57.4305 5.39062 56.8445 5.67188 56.4539 6.23438C56.0685 6.79167 55.8706 7.65885 55.8602 8.83594V9.69531C55.8602 10.9245 56.0451 11.8229 56.4149 12.3906C56.7899 12.9583 57.3784 13.2422 58.1805 13.2422C58.9044 13.2422 59.4435 13.0781 59.7977 12.75C60.157 12.4167 60.3628 11.9036 60.4149 11.2109H62.7586ZM69.0477 15C68.9435 14.7969 68.868 14.5443 68.8211 14.2422C68.2742 14.8516 67.5633 15.1562 66.6883 15.1562C65.8602 15.1562 65.1727 14.9167 64.6258 14.4375C64.0841 13.9583 63.8133 13.3542 63.8133 12.625C63.8133 11.7292 64.144 11.0417 64.8055 10.5625C65.4721 10.0833 66.4331 9.84115 67.6883 9.83594H68.7274V9.35156C68.7274 8.96094 68.6258 8.64844 68.4227 8.41406C68.2248 8.17969 67.9096 8.0625 67.4774 8.0625C67.0971 8.0625 66.7977 8.15365 66.5789 8.33594C66.3654 8.51823 66.2586 8.76823 66.2586 9.08594H64.0008C64.0008 8.59635 64.1518 8.14323 64.4539 7.72656C64.756 7.3099 65.1831 6.98438 65.7352 6.75C66.2873 6.51042 66.907 6.39062 67.5945 6.39062C68.6362 6.39062 69.4617 6.65365 70.0711 7.17969C70.6857 7.70052 70.993 8.4349 70.993 9.38281V13.0469C70.9982 13.849 71.1102 14.4557 71.3289 14.8672V15H69.0477ZM67.1805 13.4297C67.5138 13.4297 67.8211 13.3568 68.1024 13.2109C68.3836 13.0599 68.5919 12.8594 68.7274 12.6094V11.1562H67.8836C66.7534 11.1562 66.1518 11.5469 66.0789 12.3281L66.0711 12.4609C66.0711 12.7422 66.1701 12.974 66.368 13.1562C66.5659 13.3385 66.8367 13.4297 67.1805 13.4297ZM75.4305 4.46875V6.54688H76.8758V8.20312H75.4305V12.4219C75.4305 12.7344 75.4904 12.9583 75.6102 13.0938C75.73 13.2292 75.9591 13.2969 76.2977 13.2969C76.5477 13.2969 76.769 13.2786 76.9617 13.2422V14.9531C76.519 15.0885 76.0633 15.1562 75.5945 15.1562C74.0112 15.1562 73.2039 14.3568 73.1727 12.7578V8.20312H71.9383V6.54688H73.1727V4.46875H75.4305ZM77.8211 11.9375C77.8211 11.4115 77.9669 10.9245 78.2586 10.4766C78.5555 10.0286 79.0971 9.53125 79.8836 8.98438C79.5451 8.53125 79.2794 8.10677 79.0867 7.71094C78.894 7.3099 78.7977 6.89323 78.7977 6.46094C78.7977 5.57552 79.0763 4.85677 79.6336 4.30469C80.1961 3.7474 80.9513 3.46875 81.8992 3.46875C82.7482 3.46875 83.4435 3.72135 83.9852 4.22656C84.532 4.73177 84.8055 5.36198 84.8055 6.11719C84.8055 7.02344 84.3471 7.82292 83.4305 8.51562L82.5555 9.14844L84.5164 11.4297C84.8237 10.8255 84.9774 10.1589 84.9774 9.42969H86.8992C86.8992 10.9089 86.5581 12.1068 85.8758 13.0234L87.5789 15H85.0164L84.4305 14.3281C83.5919 14.8802 82.6284 15.1562 81.5399 15.1562C80.4149 15.1562 79.5138 14.862 78.8367 14.2734C78.1596 13.6797 77.8211 12.901 77.8211 11.9375ZM81.6492 13.3438C82.1909 13.3438 82.7039 13.1927 83.1883 12.8906L80.9461 10.2969L80.782 10.4141C80.3185 10.8099 80.0867 11.276 80.0867 11.8125C80.0867 12.2656 80.23 12.6354 80.5164 12.9219C80.8081 13.2031 81.1857 13.3438 81.6492 13.3438ZM80.8211 6.42969C80.8211 6.82031 81.0503 7.3125 81.5086 7.90625L82.1102 7.50781C82.4175 7.3099 82.6284 7.11719 82.743 6.92969C82.8628 6.74219 82.9227 6.51823 82.9227 6.25781C82.9227 5.9974 82.8263 5.77083 82.6336 5.57812C82.4409 5.38542 82.1935 5.28906 81.8914 5.28906C81.5685 5.28906 81.3081 5.39323 81.1102 5.60156C80.9175 5.8099 80.8211 6.08594 80.8211 6.42969ZM88.782 15V3.625H92.282C93.282 3.625 94.1753 3.85156 94.9617 4.30469C95.7534 4.7526 96.3706 5.39323 96.8133 6.22656C97.256 7.05469 97.4774 7.9974 97.4774 9.05469V9.57812C97.4774 10.6354 97.2586 11.5755 96.8211 12.3984C96.3888 13.2214 95.7768 13.8594 94.9852 14.3125C94.1935 14.7656 93.3003 14.9948 92.3055 15H88.782ZM91.1258 5.52344V13.1172H92.2586C93.1753 13.1172 93.8758 12.8177 94.3602 12.2188C94.8445 11.6198 95.0919 10.763 95.1024 9.64844V9.04688C95.1024 7.89062 94.8628 7.01562 94.3836 6.42188C93.9044 5.82292 93.2039 5.52344 92.282 5.52344H91.1258ZM98.6883 10.6953C98.6883 9.85677 98.8498 9.10938 99.1727 8.45312C99.4956 7.79688 99.9591 7.28906 100.563 6.92969C101.173 6.57031 101.878 6.39062 102.68 6.39062C103.821 6.39062 104.751 6.73958 105.47 7.4375C106.194 8.13542 106.597 9.08333 106.68 10.2812L106.696 10.8594C106.696 12.1562 106.334 13.1979 105.61 13.9844C104.886 14.7656 103.915 15.1562 102.696 15.1562C101.477 15.1562 100.503 14.7656 99.7742 13.9844C99.0503 13.2031 98.6883 12.1406 98.6883 10.7969V10.6953ZM100.946 10.8594C100.946 11.6615 101.097 12.276 101.399 12.7031C101.701 13.125 102.134 13.3359 102.696 13.3359C103.243 13.3359 103.67 13.1276 103.977 12.7109C104.285 12.2891 104.438 11.6172 104.438 10.6953C104.438 9.90885 104.285 9.29948 103.977 8.86719C103.67 8.4349 103.238 8.21875 102.68 8.21875C102.128 8.21875 101.701 8.4349 101.399 8.86719C101.097 9.29427 100.946 9.95833 100.946 10.8594ZM107.759 10.7109C107.759 9.41406 108.066 8.36979 108.68 7.57812C109.3 6.78646 110.134 6.39062 111.18 6.39062C112.108 6.39062 112.829 6.70833 113.345 7.34375L113.438 6.54688H115.485V14.7188C115.485 15.4583 115.316 16.1016 114.977 16.6484C114.644 17.1953 114.173 17.612 113.563 17.8984C112.954 18.1849 112.24 18.3281 111.423 18.3281C110.803 18.3281 110.199 18.2031 109.61 17.9531C109.022 17.7083 108.576 17.3906 108.274 17L109.274 15.625C109.837 16.2552 110.519 16.5703 111.321 16.5703C111.92 16.5703 112.386 16.4089 112.72 16.0859C113.053 15.7682 113.22 15.3151 113.22 14.7266V14.2734C112.699 14.862 112.014 15.1562 111.165 15.1562C110.149 15.1562 109.326 14.7604 108.696 13.9688C108.071 13.1719 107.759 12.1172 107.759 10.8047V10.7109ZM110.016 10.875C110.016 11.6406 110.17 12.2422 110.477 12.6797C110.785 13.112 111.207 13.3281 111.743 13.3281C112.43 13.3281 112.923 13.0703 113.22 12.5547V9C112.917 8.48438 112.43 8.22656 111.759 8.22656C111.217 8.22656 110.79 8.44792 110.477 8.89062C110.17 9.33333 110.016 9.99479 110.016 10.875Z" fill="white"/>
<defs>
<linearGradient id="paint0_linear_1:377" x1="128.73" y1="5.69129" x2="132.034" y2="5.69129" gradientUnits="userSpaceOnUse">
<stop stop-color="#4F4C5F"/>
<stop offset="1" stop-color="#77718A"/>
</linearGradient>
<linearGradient id="paint1_linear_1:377" x1="121.47" y1="5.69129" x2="124.775" y2="5.69129" gradientUnits="userSpaceOnUse">
<stop stop-color="#77718A"/>
<stop offset="1" stop-color="#4F4C5F"/>
</linearGradient>
<linearGradient id="paint2_linear_1:377" x1="126.726" y1="13.9996" x2="126.726" y2="4.83855" gradientUnits="userSpaceOnUse">
<stop stop-color="#F0A83E"/>
<stop offset="1" stop-color="#FFF5E3"/>
</linearGradient>
<linearGradient id="paint3_linear_1:377" x1="127.488" y1="7.96717" x2="131.006" y2="7.96717" gradientUnits="userSpaceOnUse">
<stop stop-color="#EFC4AB"/>
<stop offset="1" stop-color="#3C2313"/>
</linearGradient>
<linearGradient id="paint4_linear_1:377" x1="661.964" y1="1138.12" x2="1128.24" y2="1138.12" gradientUnits="userSpaceOnUse">
<stop stop-color="#4F4C5F"/>
<stop offset="1" stop-color="#77718A"/>
</linearGradient>
<linearGradient id="paint5_linear_1:377" x1="7.82148" y1="6.76375" x2="10.5627" y2="6.76375" gradientUnits="userSpaceOnUse">
<stop stop-color="#FD869C"/>
<stop offset="1" stop-color="#FDB0BF"/>
</linearGradient>
<linearGradient id="paint6_linear_1:377" x1="-13.5008" y1="1138.12" x2="452.771" y2="1138.12" gradientUnits="userSpaceOnUse">
<stop stop-color="#77718A"/>
<stop offset="1" stop-color="#4F4C5F"/>
</linearGradient>
<linearGradient id="paint7_linear_1:377" x1="-0.00015161" y1="6.76374" x2="2.74137" y2="6.76374" gradientUnits="userSpaceOnUse">
<stop stop-color="#FDB0BF"/>
<stop offset="1" stop-color="#FD869C"/>
</linearGradient>
<linearGradient id="paint8_linear_1:377" x1="5.28125" y1="10.5923" x2="5.28125" y2="4.73461" gradientUnits="userSpaceOnUse">
<stop stop-color="#FDB58A"/>
<stop offset="1" stop-color="#3C2313"/>
</linearGradient>
<linearGradient id="paint9_linear_1:377" x1="5.28117" y1="14.0002" x2="5.28117" y2="6.45016" gradientUnits="userSpaceOnUse">
<stop stop-color="#FFF5E3"/>
<stop offset="1" stop-color="#F0A83E"/>
</linearGradient>
</defs>
</svg>
